<svg xmlns="http://www.w3.org/2000/svg" viewBox="0 0 1400 900">
<defs><linearGradient id="b" x1="0" y1="0" x2="1" y2="1"><stop stop-color="#241721"/><stop offset="1" stop-color="#071017"/></linearGradient></defs>
<rect width="1400" height="900" fill="#050a10"/><rect x="70" y="55" width="1260" height="790" rx="28" fill="url(#b)" stroke="#3b2937"/>
<rect x="70" y="55" width="1260" height="72" rx="28" fill="#0d1719"/><text x="108" y="100" fill="#20d9ff" font-size="25" font-family="Arial" font-weight="700">The African Plug</text><text x="1100" y="98" fill="#91a5b4" font-size="17" font-family="Arial">MEDIA HUB</text>
<text x="110" y="175" fill="#20d9ff" font-size="14" font-family="Arial" font-weight="700" letter-spacing="3">FEATURED MEDIA</text><text x="110" y="212" fill="#f4f8fb" font-size="32" font-family="Arial" font-weight="700">Stories, video and publishing.</text>
<rect x="110" y="250" width="760" height="380" rx="20" fill="#0a1319" stroke="#2b3541"/><rect x="135" y="275" width="710" height="250" rx="16" fill="#111e28"/><polygon points="470,350 470,450 555,400" fill="#20d9ff"/><rect x="135" y="545" width="480" height="18" rx="9" fill="#20323e"/><text x="135" y="598" fill="#f4f8fb" font-size="22" font-family="Arial" font-weight="700">Featured story / video title</text><text x="135" y="625" fill="#8fa0b3" font-size="14" font-family="Arial">Fresh media · 08 min watch</text>
<rect x="900" y="250" width="380" height="380" rx="20" fill="#0a1319" stroke="#2b3541"/><text x="930" y="292" fill="#8fa0b3" font-size="14" font-family="Arial">PUBLISHING DESK</text>
<rect x="930" y="325" width="320" height="56" rx="12" fill="#10212b"/><text x="953" y="360" fill="#dbe6ee" font-size="15" font-family="Arial">New article</text><text x="1180" y="360" fill="#20d9ff" font-size="16" font-family="Arial">+</text>
<rect x="930" y="395" width="320" height="56" rx="12" fill="#10212b"/><text x="953" y="430" fill="#dbe6ee" font-size="15" font-family="Arial">Upload video</text><text x="1180" y="430" fill="#20d9ff" font-size="16" font-family="Arial">+</text>
<rect x="930" y="465" width="320" height="56" rx="12" fill="#20d9ff"/><text x="982" y="500" fill="#041017" font-size="15" font-family="Arial" font-weight="700">Manage content →</text>
<text x="110" y="690" fill="#8fa0b3" font-size="15" font-family="Arial">Latest updates</text><rect x="110" y="715" width="1170" height="44" rx="12" fill="#0d1b22"/><text x="135" y="743" fill="#c8d6de" font-size="13" font-family="Arial">Video publishing workflow · media section · content updates</text>
<text x="110" y="790" fill="#6e8595" font-size="12" font-family="Arial">UI PREVIEW · representative portfolio visual</text></svg>